<!DOCTYPE svg PUBLIC "-//W3C//DTD SVG 1.1//EN" "http://www.w3.org/Graphics/SVG/1.1/DTD/svg11.dtd">
<!-- Uploaded to: SVG Repo, www.svgrepo.com, Transformed by: SVG Repo Mixer Tools -->
<svg width="800px" height="800px" viewBox="0 0 24 24" fill="none" xmlns="http://www.w3.org/2000/svg">
<g id="SVGRepo_bgCarrier" stroke-width="0"/>
<g id="SVGRepo_tracerCarrier" stroke-linecap="round" stroke-linejoin="round"/>
<g id="SVGRepo_iconCarrier"> <path d="M10.5 21H4C4 17.4735 6.60771 14.5561 10 14.0709M16.4976 16.2119C15.7978 15.4328 14.6309 15.2232 13.7541 15.9367C12.8774 16.6501 12.7539 17.843 13.4425 18.6868C13.8312 19.1632 14.7548 19.9983 15.4854 20.6353C15.8319 20.9374 16.0051 21.0885 16.2147 21.1503C16.3934 21.203 16.6018 21.203 16.7805 21.1503C16.9901 21.0885 17.1633 20.9374 17.5098 20.6353C18.2404 19.9983 19.164 19.1632 19.5527 18.6868C20.2413 17.843 20.1329 16.6426 19.2411 15.9367C18.3492 15.2307 17.1974 15.4328 16.4976 16.2119ZM15 7C15 9.20914 13.2091 11 11 11C8.79086 11 7 9.20914 7 7C7 4.79086 8.79086 3 11 3C13.2091 3 15 4.79086 15 7Z" stroke="#ffffff" stroke-width="2" stroke-linecap="round" stroke-linejoin="round"/> </g>
</svg>